# xmcd
#
# Track frame offsets: 
#        150
#        18778
#        34525
#        52605
#        71675
#        85554
#        99952
#        116369
#        133670
#        150346
#        166121
#
# Disc length: 2429 seconds
#
# Revision: 0
# Processed by: cddbd v1.5.2PL0 Copyright (c) Steve Scherf et al.
# Submitted via: ExactAudioCopyFreeDBPlugin 1.0
#
DISCID=6a097b0b
DTITLE=The Southern Drawl Band - Against the Grain
DYEAR=2012
DGENRE=Trop Rock
TTITLE0=Against the Grain
TTITLE1=Another Day in Paradise
TTITLE2=The Backroads
TTITLE3=Party Trained
TTITLE4=Lil Bit
TTITLE5=The Road I'm On
TTITLE6=Family Tree
TTITLE7=When Kids Played Outside
TTITLE8=Gone
TTITLE9=Doin Time
TTITLE10=My Johnson
EXTD=
EXTT0=
EXTT1=
EXTT2=
EXTT3=
EXTT4=
EXTT5=
EXTT6=
EXTT7=
EXTT8=
EXTT9=
EXTT10=
PLAYORDER=
